<svg id="Capa_1" enable-background="new 0 0 512 512" height="512" viewBox="0 0 512 512" width="512" xmlns="http://www.w3.org/2000/svg"><g><path d="m497.279 121.281-14.932-14.933 5.826-5.826c2.929-2.929 2.929-7.678-.001-10.606-2.928-2.93-7.677-2.929-10.606 0l-5.825 5.826-14.932-14.932c-18.297-18.297-47.498-19.177-66.861-2.667l-16.674-4.431c-14.466-3.844-24.931-15.936-26.658-30.804-2.845-24.462-23.558-42.908-48.184-42.908h-85.406c-24.625 0-45.339 18.446-48.183 42.907-1.728 14.868-12.192 26.96-26.659 30.804l-16.67 4.43c-8.917-7.617-20.124-11.782-31.979-11.782-13.178 0-25.567 5.131-34.886 14.45l-14.932 14.933-5.827-5.826c-2.928-2.93-7.677-2.929-10.606 0s-2.929 7.678.001 10.606l5.826 5.826-14.931 14.931c-2.412 2.411-4.581 5.082-6.446 7.939-2.265 3.468-1.289 8.116 2.179 10.38 3.469 2.264 8.115 1.288 10.38-2.179 1.301-1.991 2.812-3.852 4.493-5.532l40.471-40.472c6.484-6.485 15.107-10.056 24.278-10.056s17.793 3.571 24.277 10.056l11.309 11.309c-89.684 89.683 17.34-17.341-89.027 89.028l-11.309-11.309c-5.133-5.132-8.455-11.63-9.606-18.791-.658-4.09-4.506-6.873-8.597-6.214-4.089.658-6.871 4.506-6.214 8.596 1.656 10.296 6.433 19.639 13.811 27.016l11.761 11.761c2.8 2.799 6.477 4.198 10.153 4.198 3.678 0 7.355-1.399 10.155-4.199l22.202-22.202 17.695 17.695c-16.437 28.611-25.845 61.751-25.845 97.048 0 49.743 18.691 95.196 49.406 129.73v62.986c0 13.197 10.736 23.934 23.934 23.934h40.552c13.197 0 23.934-10.736 23.934-23.934v-5.955c18.217 5.63 37.561 8.667 57.603 8.667s39.386-3.037 57.603-8.667v5.954c0 13.197 10.736 23.934 23.934 23.934h40.553c12.457 0 22.935-9.733 23.852-22.158.306-4.131-2.796-7.728-6.927-8.032-4.129-.294-7.728 2.797-8.032 6.927-.343 4.634-4.248 8.264-8.893 8.264h-40.553c-4.926 0-8.934-4.008-8.934-8.934v-11.28c21.648-8.694 41.394-21.149 58.42-36.561v19.045c0 4.143 3.357 7.5 7.5 7.5s7.5-3.357 7.5-7.5v-34.19c30.715-34.534 49.406-79.987 49.406-129.73 0-35.297-9.408-68.437-25.845-97.048l17.695-17.695 22.202 22.203c5.601 5.6 14.711 5.597 20.31 0l11.76-11.761c9.318-9.318 14.449-21.707 14.449-34.885s-5.131-25.566-14.45-34.884zm-361.098-28.711-2.217-2.217 8.071-2.145c20.462-5.438 35.264-22.54 37.708-43.57 1.964-16.896 16.273-29.638 33.282-29.638h85.406c17.011 0 31.319 12.742 33.283 29.639 2.444 21.03 17.245 38.132 37.707 43.57l8.072 2.145-2.216 2.216c-2.713 2.712-4.207 6.319-4.207 10.155 0 3.835 1.494 7.441 4.206 10.154l22.203 22.203-13.201 13.201c-32.629-28.556-74.807-46.447-121.05-48.201v-17.174h18.054c4.143 0 7.5-3.358 7.5-7.5s-3.357-7.5-7.5-7.5h-51.106c-4.143 0-7.5 3.358-7.5 7.5s3.357 7.5 7.5 7.5h18.053v17.173c-46.243 1.754-88.421 19.645-121.05 48.201l-13.201-13.201 22.203-22.203c5.598-5.6 5.597-14.71 0-20.308zm-57.124 77.432 12.157-12.157 12.157-12.157 12.903 12.903c-8.066 8.224-15.415 17.152-21.939 26.688zm104.069 318.065c0 4.926-4.008 8.934-8.934 8.934h-40.552c-4.926 0-8.934-4.008-8.934-8.934v-47.84c17.025 15.412 36.771 27.867 58.419 36.56v11.28zm72.602-12.287c-99.488 0-180.428-80.94-180.428-180.429s80.939-180.428 180.428-180.428 180.429 80.94 180.429 180.428-80.94 180.429-180.429 180.429zm161.395-290.501c-6.525-9.536-13.873-18.465-21.939-26.688l12.903-12.903 24.314 24.314zm69.549-4.835-11.308 11.309c-11.15-11.151-77.845-77.846-89.027-89.029l11.308-11.308c13.387-13.387 35.17-13.388 48.557 0l40.471 40.471c6.485 6.485 10.057 15.107 10.057 24.278s-3.573 17.794-10.058 24.279z"/><path d="m255.728 200.308c4.143 0 7.5-3.358 7.5-7.5v-9.645c0-4.142-3.357-7.5-7.5-7.5s-7.5 3.358-7.5 7.5v9.645c0 4.142 3.358 7.5 7.5 7.5z"/><path d="m328.238 230.342c1.919 0 3.839-.732 5.304-2.197l6.82-6.82c2.929-2.929 2.929-7.678 0-10.606-2.93-2.929-7.678-2.929-10.607 0l-6.82 6.82c-2.929 2.929-2.929 7.678 0 10.606 1.464 1.465 3.384 2.197 5.303 2.197z"/><path d="m358.272 302.851h9.645c4.143 0 7.5-3.357 7.5-7.5s-3.357-7.5-7.5-7.5h-9.645c-4.143 0-7.5 3.357-7.5 7.5s3.358 7.5 7.5 7.5z"/><path d="m329.755 379.984c1.465 1.464 3.385 2.196 5.304 2.196s3.839-.732 5.304-2.196c2.929-2.93 2.929-7.678 0-10.607l-6.82-6.82c-2.93-2.928-7.678-2.928-10.607 0-2.929 2.93-2.929 7.678 0 10.607z"/><path d="m248.228 397.895v9.645c0 4.143 3.357 7.5 7.5 7.5s7.5-3.357 7.5-7.5v-9.645c0-4.143-3.357-7.5-7.5-7.5s-7.5 3.357-7.5 7.5z"/><path d="m177.916 362.556-6.82 6.82c-2.929 2.93-2.929 7.678 0 10.607 1.465 1.464 3.385 2.196 5.304 2.196s3.839-.732 5.304-2.196l6.82-6.82c2.929-2.93 2.929-7.678 0-10.607-2.93-2.928-7.678-2.928-10.608 0z"/><path d="m153.186 287.851h-9.646c-4.143 0-7.5 3.357-7.5 7.5s3.357 7.5 7.5 7.5h9.646c4.143 0 7.5-3.357 7.5-7.5s-3.358-7.5-7.5-7.5z"/><path d="m188.523 217.539-6.82-6.82c-2.93-2.929-7.678-2.929-10.607 0s-2.929 7.678 0 10.606l6.82 6.82c1.465 1.464 3.385 2.197 5.304 2.197s3.839-.732 5.304-2.197c2.928-2.928 2.928-7.677-.001-10.606z"/><path d="m305.394 295.351c0-4.143-3.357-7.5-7.5-7.5h-34.665v-55.816c0-4.142-3.357-7.5-7.5-7.5s-7.5 3.358-7.5 7.5v63.316c0 4.143 3.357 7.5 7.5 7.5h42.165c4.142 0 7.5-3.357 7.5-7.5z"/><path d="m340.152 169.336c-3.438-2.308-8.098-1.392-10.407 2.047s-1.392 8.099 2.048 10.407c37.95 25.473 60.606 67.926 60.606 113.561 0 75.36-61.311 136.671-136.671 136.671s-136.67-61.311-136.67-136.671 61.31-136.67 136.67-136.67c17.591 0 34.725 3.3 50.925 9.809 3.841 1.542 8.21-.319 9.755-4.164 1.545-3.843-.319-8.211-4.163-9.755-17.985-7.226-37.001-10.89-56.517-10.89-83.631 0-151.67 68.039-151.67 151.67 0 83.632 68.039 151.671 151.67 151.671 83.632 0 151.671-68.039 151.671-151.671 0-50.643-25.138-97.751-67.247-126.015z"/></g></svg>