<?xml version="1.0" encoding="iso-8859-1"?>
<!-- Generator: Adobe Illustrator 19.0.0, SVG Export Plug-In . SVG Version: 6.00 Build 0)  -->
<svg version="1.1" id="Capa_1" xmlns="http://www.w3.org/2000/svg" xmlns:xlink="http://www.w3.org/1999/xlink" x="0px" y="0px"
	 viewBox="0 0 495.992 495.992" style="enable-background:new 0 0 495.992 495.992;" xml:space="preserve">
<g>
	<g>
		<g>
			<path d="M447.816,390.184c-5.376-32.232-27.976-58.68-58.976-69.016L320,298.224v-10.232h-16v14.976l-12.344,47.312
				l-31.904-38.288h-23.504l-31.904,38.288L192,302.968v-14.976h-16v10.232l-68.832,22.944c-31,10.336-53.6,36.784-58.976,69.016
				l-17.64,105.808H465.44L447.816,390.184z M120.84,479.992l7.12-71.2l-15.92-1.592l-7.28,72.8H49.448l14.52-87.184
				c4.4-26.368,22.888-48.008,48.256-56.472l33.408-11.136l-19.608,45.752l23.664,15.776l-15.104,30.184l49.056,63.072H120.84z
				 M203.912,479.992l-50.496-64.928l16.896-33.816l-24.336-16.224l19.96-46.576l12.48-4.16l43.232,165.704H203.912z
				 M220.384,411.768l-11.072-42.448l4.792-5.752l9.656,14.48L220.384,411.768z M263.984,456.328l-6.168,23.664h-19.64L232,456.328
				l8.232-82.392l-15.456-23.184l18.976-22.76h8.496l18.96,22.76l-15.456,23.184L263.984,456.328z M281.896,363.568l4.792,5.752
				l-11.072,42.448l-3.376-33.72L281.896,363.568z M274.352,479.992l43.232-165.704l12.48,4.16l19.96,46.576l-24.336,16.224
				l16.896,33.816l-50.496,64.928H274.352z M391.24,479.992l-7.28-72.8l-15.92,1.592l7.12,71.2h-62.8l49.056-63.072l-15.104-30.184
				l23.664-15.776L350.368,325.2l33.408,11.136c25.368,8.464,43.856,30.104,48.256,56.472l14.52,87.184H391.24z"/>
			<path d="M128,122.888v21.304c-9.656,7.312-16,18.784-16,31.792c0,20.528,15.6,37.296,35.536,39.552
				c4.08,14.04,11.616,26.912,22.24,37.536l31.192,31.192c7.552,7.552,17.6,11.72,28.288,11.72h37.488
				c10.688,0,20.736-4.168,28.288-11.72l31.192-31.192c10.624-10.624,18.152-23.504,22.24-37.536
				C368.4,213.288,384,196.52,384,175.992c0-13.016-6.344-24.488-16-31.792v-21.304C398.896,109.64,416,91.728,416,72
				c0-40.376-73.8-72-168-72S80,31.624,80,72C80,91.72,97.104,109.632,128,122.888z M128,175.992c0-10.416,6.712-19.216,16-22.528
				v37.392c0,2.616,0.152,5.208,0.376,7.784C134.896,195.432,128,186.544,128,175.992z M336,190.856
				c0,19.232-7.496,37.312-21.088,50.912L283.72,272.96c-4.536,4.536-10.56,7.032-16.976,7.032h-37.488
				c-6.416,0-12.448-2.496-16.976-7.032l-31.192-31.192c-13.592-13.6-21.088-31.68-21.088-50.912v-44.944
				c19.632-4.464,51.112-9.92,88-9.92c36.816,0,68.336,5.464,88,9.928V190.856z M351.624,198.632
				c0.224-2.568,0.376-5.16,0.376-7.776v-37.392c9.288,3.312,16,12.112,16,22.528C368,186.544,361.104,195.432,351.624,198.632z
				 M248,15.992c89.576,0,152,29.512,152,56c0,11.832-11.88,23.912-32.952,33.912l-4.528-1.504
				c-0.928-0.304-23.088-7.592-57.424-12.376l-2.2,15.84c23.128,3.224,40.696,7.696,49.104,10.08v15.376
				c-17.776-4.76-56.368-13.328-104-13.328c-47.632,0-86.224,8.568-104,13.336v-15.384c8.384-2.376,25.896-6.84,49.104-10.072
				l-2.2-15.84c-34.344,4.784-56.496,12.072-57.424,12.376l-4.528,1.504C107.88,95.904,96,83.824,96,71.992
				C96,45.504,158.424,15.992,248,15.992z"/>
			<path d="M211.392,87.992c6.192,14.104,20.248,24,36.608,24s30.416-9.896,36.608-24H308l36-48h-56v16h24l-12,16h-12
				c0-22.056-17.944-40-40-40c-22.056,0-40,17.944-40,40h-12l-12-16h24v-16h-56l36,48H211.392z M248,47.992
				c13.232,0,24,10.768,24,24s-10.768,24-24,24s-24-10.768-24-24S234.768,47.992,248,47.992z"/>
		</g>
	</g>
</g>
<g>
</g>
<g>
</g>
<g>
</g>
<g>
</g>
<g>
</g>
<g>
</g>
<g>
</g>
<g>
</g>
<g>
</g>
<g>
</g>
<g>
</g>
<g>
</g>
<g>
</g>
<g>
</g>
<g>
</g>
</svg>
